<?xml version="1.0" encoding="UTF-8"?>
<svg version="1.1" xmlns="http://www.w3.org/2000/svg" width="512" height="512">
<path d="M0 0 C1.94128633 -0.00712721 3.88257062 -0.01482978 5.82385254 -0.02307129 C9.87481548 -0.03643364 13.92558385 -0.03812377 17.9765625 -0.03222656 C22.08232976 -0.02752221 26.18732392 -0.04132794 30.29296875 -0.07324219 C73.81818639 -0.40768066 73.81818639 -0.40768066 92.65625 5.46875 C93.92098145 5.8188916 95.18571289 6.1690332 96.48876953 6.52978516 C99.68621575 7.44432354 102.82360183 8.45184249 105.96875 9.53125 C107.07847168 9.90773682 108.18819336 10.28422363 109.33154297 10.67211914 C142.76497631 22.36603901 172.19985816 40.54488655 198.3125 64.34375 C200.46317711 66.29369724 202.64449971 68.19901129 204.84375 70.09375 C211.31343811 75.74498359 217.14135243 81.88847449 222.65625 88.46875 C223.08035156 88.97374023 223.50445312 89.47873047 223.94140625 89.99902344 C236.20911827 104.70148332 246.78887709 120.49583256 255.65625 137.46875 C256.24720459 138.58564209 256.24720459 138.58564209 256.85009766 139.72509766 C268.37864556 161.78149906 276.15669698 186.01931543 280.65625 210.46875 C280.81706055 211.26941895 280.97787109 212.07008789 281.14355469 212.89501953 C286.6356941 240.97287453 286.39021692 274.45852935 280.65625 302.46875 C280.46289062 303.46535645 280.26953125 304.46196289 280.0703125 305.48876953 C272.13052489 345.67169157 255.4889958 383.57540992 229.65625 415.46875 C228.95371094 416.36335938 228.25117188 417.25796875 227.52734375 418.1796875 C205.46987352 445.88354514 177.9568732 468.0163948 146.65625 484.46875 C145.90730469 484.86562012 145.15835937 485.26249023 144.38671875 485.67138672 C122.33505409 497.19548427 98.09928189 504.9703753 73.65625 509.46875 C72.85558105 509.62956055 72.05491211 509.79037109 71.22998047 509.95605469 C43.15212547 515.4481941 9.66647065 515.20271692 -18.34375 509.46875 C-19.83865967 509.17871094 -19.83865967 509.17871094 -21.36376953 508.8828125 C-61.54669157 500.94302489 -99.45040992 484.3014958 -131.34375 458.46875 C-132.23835938 457.76621094 -133.13296875 457.06367188 -134.0546875 456.33984375 C-150.62877088 443.1437627 -165.16659816 428.12465366 -177.96875 411.27636719 C-178.88040531 410.07787715 -179.79703301 408.88315213 -180.71875 407.69238281 C-188.59861837 397.50116101 -195.18352599 386.77545951 -201.34375 375.46875 C-201.7056543 374.8082666 -202.06755859 374.1477832 -202.44042969 373.46728516 C-213.49970127 353.03673607 -221.19869695 331.08613467 -226.34375 308.46875 C-226.59977745 307.53471848 -226.59977745 307.53471848 -226.86097717 306.58181763 C-229.10310825 297.41022149 -228.69234767 287.95724438 -228.71484375 278.578125 C-228.7238331 276.62729839 -228.73295527 274.67647238 -228.74220276 272.72564697 C-228.75864222 268.64064879 -228.76638245 264.55573199 -228.76928711 260.47070312 C-228.77463593 255.30051227 -228.81219232 250.1311157 -228.85803127 244.96114731 C-228.88816633 240.92842004 -228.89501861 236.89587465 -228.89601326 232.86304474 C-228.9001513 230.96092378 -228.91231803 229.05879886 -228.93353081 227.15679169 C-229.07898873 212.97505572 -227.01399615 200.15435157 -223.34375 186.46875 C-223.10573827 185.57425266 -222.86772654 184.67975533 -222.62250233 183.75815201 C-208.52706854 131.06122335 -174.71286175 80.52697702 -130.34375 48.46875 C-129.19600242 47.61540608 -128.04887638 46.76122561 -126.90234375 45.90625 C-118.70967098 39.86066996 -110.19048093 34.50050896 -101.34375 29.46875 C-100.71194824 29.10426758 -100.08014648 28.73978516 -99.42919922 28.36425781 C-79.46089463 16.93506403 -57.63106492 9.0137951 -35.34375 3.46875 C-34.30888458 3.21016708 -33.27401917 2.95158417 -32.20779419 2.68516541 C-21.43876916 0.25819224 -11.00771306 -0.00499112 0 0 Z " fill="#3885D4" transform="translate(228.34375,-0.46875)"/>
<path d="M0 0 C4.65175174 3.3275932 7.79369992 7.2852356 11.1875 11.8125 C11.75629883 12.56587646 12.32509766 13.31925293 12.91113281 14.09545898 C21.9407641 26.15986681 29.98756009 38.65882563 37 52 C37.39687012 52.74894531 37.79374023 53.49789062 38.20263672 54.26953125 C49.72673427 76.32119591 57.5016253 100.55696811 62 125 C62.16081055 125.80066895 62.32162109 126.60133789 62.48730469 127.42626953 C67.9794441 155.50412453 67.73396692 188.98977935 62 217 C61.70996094 218.49490967 61.70996094 218.49490967 61.4140625 220.02001953 C53.47427489 260.20294157 36.8327458 298.10665992 11 330 C10.29746094 330.89460938 9.59492188 331.78921875 8.87109375 332.7109375 C-13.18637648 360.41479514 -40.6993768 382.5476448 -72 399 C-72.74894531 399.39687012 -73.49789063 399.79374023 -74.26953125 400.20263672 C-96.32119591 411.72673427 -120.55696811 419.5016253 -145 424 C-145.80066895 424.16081055 -146.60133789 424.32162109 -147.42626953 424.48730469 C-175.50412453 429.9794441 -208.98977935 429.73396692 -237 424 C-237.99660645 423.80664062 -238.99321289 423.61328125 -240.02001953 423.4140625 C-280.19668734 415.47551067 -318.11561063 398.83735001 -350 373 C-351.55074219 371.77216797 -351.55074219 371.77216797 -353.1328125 370.51953125 C-361.22642933 364.04252457 -361.22642933 364.04252457 -364 360 C-363.17113281 360.41121094 -362.34226562 360.82242187 -361.48828125 361.24609375 C-356.70634561 362.2795916 -354.15296328 360.49174433 -350.1875 358.0625 C-349.41398193 357.60939453 -348.64046387 357.15628906 -347.84350586 356.68945312 C-346.13526956 355.6839585 -344.43279996 354.66862083 -342.73535156 353.64501953 C-339.90823884 351.94481554 -337.0618453 350.28105018 -334.2109375 348.62109375 C-318.39314698 339.34486777 -303.16124956 329.29754088 -288 319 C-286.43508962 317.94502499 -284.87000886 316.89030262 -283.3046875 315.8359375 C-273.97580928 309.52119174 -264.95600218 302.83056986 -256 296 C-254.88942338 295.15872152 -253.77875119 294.3175692 -252.66796875 293.4765625 C-247.96594236 289.89351403 -243.31345615 286.27134791 -238.7421875 282.5234375 C-238.01708984 281.92909912 -237.29199219 281.33476074 -236.54492188 280.72241211 C-235.12337132 279.55308761 -233.70526006 278.37956645 -232.29101562 277.20141602 C-231.64583984 276.66959717 -231.00066406 276.13777832 -230.3359375 275.58984375 C-229.76407715 275.11409912 -229.1922168 274.63835449 -228.60302734 274.14819336 C-227 273 -227 273 -224 272 C-223.98018066 272.82725586 -223.96036133 273.65451172 -223.93994141 274.50683594 C-223.84468788 278.25487806 -223.73500891 282.00236317 -223.625 285.75 C-223.57859375 287.70292969 -223.57859375 287.70292969 -223.53125 289.6953125 C-223.47324219 291.57089844 -223.47324219 291.57089844 -223.4140625 293.484375 C-223.3826416 294.63647461 -223.3512207 295.78857422 -223.31884766 296.97558594 C-223.01024131 299.90285653 -222.37307807 301.46283049 -221 304 C-213.63105185 304.05058145 -206.26214822 304.08568333 -198.89306641 304.10986328 C-196.38458585 304.11994011 -193.87611708 304.13360179 -191.36767578 304.15087891 C-187.76852512 304.17505337 -184.16952933 304.18646612 -180.5703125 304.1953125 C-178.87964157 304.21079636 -178.87964157 304.21079636 -177.15481567 304.22659302 C-176.11388763 304.22674408 -175.07295959 304.22689514 -174.00048828 304.22705078 C-173.08115509 304.231492 -172.1618219 304.23593323 -171.21463013 304.24050903 C-168.79388224 304.21163592 -168.79388224 304.21163592 -167 302 C-166.68626841 299.89389562 -166.68626841 299.89389562 -166.7215271 297.43161011 C-166.71036362 296.46964722 -166.69920013 295.50768433 -166.68769836 294.51657104 C-166.68445808 292.92838058 -166.68445808 292.92838058 -166.68115234 291.30810547 C-166.67110672 290.19590637 -166.6610611 289.08370728 -166.65071106 287.93780518 C-166.6197262 284.24760473 -166.6028014 280.55747732 -166.5859375 276.8671875 C-166.56723817 274.31413131 -166.5476657 271.76108139 -166.5272522 269.20803833 C-166.48105904 263.16616537 -166.44369782 257.12429972 -166.41057932 251.08234608 C-166.37238878 244.20450027 -166.32297066 237.32674959 -166.27259517 230.44898391 C-166.16921017 216.29938593 -166.08145355 202.14974035 -166 188 C-143.725 187.505 -143.725 187.505 -121 187 C-119.85381401 183.24231438 -119.85381401 183.24231438 -120.140625 180.2578125 C-120.375227 173.5381409 -119.20616941 169.54185532 -114.73876953 164.64575195 C-112.40611483 162.27019108 -110.03527619 159.93834677 -107.63769531 157.62841797 C-105.36739275 155.3709764 -103.37115013 152.93813171 -101.375 150.4375 C-98.63741679 147.02051657 -95.86559615 143.64679226 -93.02050781 140.31958008 C-86.79821016 133.04245275 -80.85377098 125.57546832 -75 118 C-74.49210937 117.34515625 -73.98421875 116.6903125 -73.4609375 116.015625 C-50.33709173 86.17105558 -29.07040399 54.82355709 -10.21435547 22.10253906 C-8.94470498 19.90426202 -7.66163165 17.71410609 -6.37890625 15.5234375 C-5.54343625 14.07860727 -4.70877147 12.63331107 -3.875 11.1875 C-3.48417236 10.52339111 -3.09334473 9.85928223 -2.69067383 9.17504883 C-0.73789209 5.75135213 0 4.04135714 0 0 Z " fill="#2075CD" transform="translate(447,85)"/>
<path d="M0 0 C0.9973819 -0.0066568 1.99476379 -0.0133136 3.02236938 -0.02017212 C5.11141126 -0.03022317 7.20048475 -0.0349915 9.28955078 -0.03466797 C12.48913312 -0.03907983 15.68737618 -0.07558433 18.88671875 -0.11328125 C20.92447448 -0.11914325 22.96223671 -0.12311677 25 -0.125 C25.95417816 -0.13937103 26.90835632 -0.15374207 27.89144897 -0.16854858 C31.67788615 -0.14232214 34.33534186 -0.07533688 37.7019043 1.73168945 C39.92146722 5.861478 39.65199883 9.84874457 39.59765625 14.46484375 C39.59911148 15.45089096 39.60056671 16.43693817 39.60206604 17.4528656 C39.60040763 19.53493203 39.58885289 21.61701079 39.56811523 23.69897461 C39.53913604 26.89033894 39.54751256 30.08004483 39.56054688 33.27148438 C39.5543102 35.29427892 39.54591982 37.31706822 39.53515625 39.33984375 C39.53809189 40.29613174 39.54102753 41.25241974 39.54405212 42.23768616 C39.53136795 43.12548264 39.51868378 44.01327911 39.50561523 44.92797852 C39.50021225 45.70867203 39.49480927 46.48936554 39.48924255 47.29371643 C38.99695198 49.88700483 38.20613179 50.77603627 36.1015625 52.3359375 C33.54106551 52.61918744 31.21175479 52.72944766 28.65234375 52.70703125 C27.14908642 52.72442735 25.64583127 52.74201157 24.14257812 52.75976562 C21.78389224 52.76979426 19.4253566 52.77344572 17.06665039 52.77172852 C4.93229997 52.51892982 4.93229997 52.51892982 -5.8984375 57.3359375 C-8.54951612 61.02876938 -8.24666943 65.23149155 -8.3125 69.6015625 C-8.33186615 70.39496033 -8.3512323 71.18835815 -8.3711853 72.00579834 C-8.43082111 74.53240307 -8.47730193 77.05905375 -8.5234375 79.5859375 C-8.56163205 81.30210287 -8.60068465 83.01824937 -8.640625 84.734375 C-8.73650936 88.93474206 -8.82059917 93.13519884 -8.8984375 97.3359375 C-6.96810669 97.32022705 -6.96810669 97.32022705 -4.9987793 97.30419922 C-0.22976456 97.26803206 4.53923802 97.24504896 9.30834961 97.22607422 C11.3734745 97.21600915 13.43858513 97.20235596 15.50366211 97.18505859 C18.46992514 97.16083257 21.43599994 97.14945953 24.40234375 97.140625 C25.3274324 97.13030243 26.25252106 97.11997986 27.2056427 97.10934448 C28.06630844 97.10919342 28.92697418 97.10904236 29.8137207 97.10888672 C30.94956352 97.10222488 30.94956352 97.10222488 32.10835266 97.09542847 C34.1015625 97.3359375 34.1015625 97.3359375 37.1015625 99.3359375 C37.48251343 101.45445251 37.48251343 101.45445251 37.48974609 104.10522461 C37.49920258 105.09642807 37.50865906 106.08763153 37.5184021 107.10887146 C37.50929306 108.71980431 37.50929306 108.71980431 37.5 110.36328125 C37.50430527 112.01306725 37.50430527 112.01306725 37.50869751 113.69618225 C37.51074185 116.02556878 37.50518625 118.35497234 37.49267578 120.68432617 C37.47664332 124.25543563 37.49250486 127.82541056 37.51171875 131.39648438 C37.50973608 133.65625251 37.50589193 135.91601993 37.5 138.17578125 C37.50607269 139.24771225 37.51214539 140.31964325 37.5184021 141.42405701 C37.50421738 142.91559044 37.50421738 142.91559044 37.48974609 144.43725586 C37.48735931 145.31280624 37.48497253 146.18835663 37.48251343 147.09043884 C37.01025861 149.8741243 36.29293083 150.60093759 34.1015625 152.3359375 C32.10835266 152.69670105 32.10835266 152.69670105 29.8137207 152.67651367 C28.95305496 152.67628708 28.09238922 152.67606049 27.2056427 152.67582703 C26.28055405 152.66034317 25.35546539 152.64485931 24.40234375 152.62890625 C23.45215866 152.62466141 22.50197357 152.62041656 21.522995 152.61604309 C18.48639662 152.59924234 15.45046048 152.56158742 12.4140625 152.5234375 C10.35612937 152.50839247 8.29818585 152.49470375 6.24023438 152.48242188 C1.19375502 152.44933421 -3.85222894 152.39754212 -8.8984375 152.3359375 C-8.89567212 152.9206976 -8.89290674 153.50545771 -8.89005756 154.10793781 C-8.82383642 168.32918038 -8.77417583 182.55039986 -8.74300098 196.7717638 C-8.72752476 203.64908697 -8.70642098 210.52630729 -8.67211914 217.40356445 C-8.63905135 224.03655967 -8.62159981 230.66947588 -8.61380577 237.30255699 C-8.60824916 239.83719251 -8.59739894 242.37182197 -8.58124733 244.90641212 C-8.55957036 248.44791084 -8.55646654 251.98896355 -8.55786133 255.53051758 C-8.5470755 256.58571594 -8.53628967 257.64091431 -8.525177 258.72808838 C-8.52930099 259.69142593 -8.53342499 260.65476349 -8.53767395 261.64729309 C-8.53490857 262.48520291 -8.53214319 263.32311274 -8.52929401 264.18641376 C-8.98542171 266.84244686 -9.77386307 267.72435419 -11.8984375 269.3359375 C-14.21986389 269.71688843 -14.21986389 269.71688843 -16.98071289 269.72412109 C-18.01511002 269.73357758 -19.04950714 269.74303406 -20.11524963 269.7527771 C-21.23092819 269.74670441 -22.34660675 269.74063171 -23.49609375 269.734375 C-25.21390297 269.73868027 -25.21390297 269.73868027 -26.96641541 269.74307251 C-29.38817845 269.74511491 -31.80995792 269.73957283 -34.23168945 269.72705078 C-37.94975433 269.71098582 -41.66673447 269.72690201 -45.38476562 269.74609375 C-47.73437741 269.74411164 -50.08398852 269.74026863 -52.43359375 269.734375 C-54.11014793 269.74348404 -54.11014793 269.74348404 -55.8205719 269.7527771 C-56.85181686 269.74332062 -57.88306183 269.73386414 -58.94555664 269.72412109 C-59.85584122 269.72173431 -60.76612579 269.71934753 -61.70399475 269.71688843 C-62.42816086 269.59117462 -63.15232697 269.46546082 -63.8984375 269.3359375 C-66.03673996 266.12848381 -66.14704671 265.32882346 -66.13894653 261.64729309 C-66.14169586 260.68395554 -66.14444519 259.72061798 -66.14727783 258.72808838 C-66.14008728 257.67289001 -66.13289673 256.61769165 -66.12548828 255.53051758 C-66.12578033 254.41817245 -66.12607239 253.30582733 -66.12637329 252.15977478 C-66.12497748 248.47492736 -66.10940425 244.79028094 -66.09375 241.10546875 C-66.09002077 238.55384939 -66.08717337 236.0022286 -66.08517456 233.4506073 C-66.07831272 227.41578595 -66.06254214 221.38105118 -66.04247558 215.34626454 C-66.02012561 208.47571921 -66.00912543 201.60517043 -65.99908471 194.7345978 C-65.97817612 180.60166357 -65.94149627 166.46882071 -65.8984375 152.3359375 C-78.7684375 152.3359375 -91.6384375 152.3359375 -104.8984375 152.3359375 C-106.76198597 148.60884056 -107.15151524 147.43322001 -107.1730957 143.52319336 C-107.18262772 142.57218246 -107.19215973 141.62117157 -107.20198059 140.64134216 C-107.20061348 139.11151451 -107.20061348 139.11151451 -107.19921875 137.55078125 C-107.20350388 136.4981459 -107.207789 135.44551056 -107.21220398 134.36097717 C-107.21794283 132.1377128 -107.21845082 129.91442965 -107.21411133 127.69116211 C-107.21094612 124.28271686 -107.23443488 120.87513515 -107.25976562 117.46679688 C-107.26203806 115.30729276 -107.26274237 113.14778631 -107.26171875 110.98828125 C-107.2709285 109.96637192 -107.28013824 108.94446259 -107.28962708 107.8915863 C-107.28339828 106.94372757 -107.27716949 105.99586884 -107.27075195 105.01928711 C-107.27138138 104.18529892 -107.2720108 103.35131073 -107.2726593 102.49205017 C-106.80520689 99.79878094 -106.10758189 98.91755146 -103.8984375 97.3359375 C-100.95659009 97.07426071 -98.2310654 96.98719829 -95.29296875 97.04296875 C-94.03416145 97.04933601 -94.03416145 97.04933601 -92.74992371 97.05583191 C-90.06993505 97.07262286 -87.3906988 97.1102752 -84.7109375 97.1484375 C-82.89389107 97.16348383 -81.07683285 97.17717232 -79.25976562 97.18945312 C-74.80569974 97.22252768 -70.35219618 97.27431237 -65.8984375 97.3359375 C-65.91414795 95.55147217 -65.91414795 95.55147217 -65.93017578 93.73095703 C-65.9666388 89.27672386 -65.98943286 84.82250363 -66.00830078 80.36816406 C-66.01829883 78.44789402 -66.03190171 76.52763897 -66.04931641 74.60742188 C-66.07383942 71.83199339 -66.08498281 69.05676785 -66.09375 66.28125 C-66.10923386 65.01343185 -66.10923386 65.01343185 -66.12503052 63.72000122 C-66.12776855 48.85556128 -61.48784878 35.39263407 -52.8984375 23.3359375 C-52.1765625 22.3046875 -51.4546875 21.2734375 -50.7109375 20.2109375 C-37.69966587 5.64168189 -18.95644857 0.04478651 0 0 Z " fill="#FDFEFE" transform="translate(289.8984375,120.6640625)"/>
<path d="M0 0 C0 0.33 0 0.66 0 1 C-0.86443726 1.09704224 -0.86443726 1.09704224 -1.74633789 1.19604492 C-68.81947327 8.89990007 -131.05107993 38.99587373 -174.6875 91.4375 C-176.14030998 93.27969528 -177.57699997 95.13468202 -179 97 C-179.41813965 97.54172852 -179.8362793 98.08345703 -180.26708984 98.64160156 C-187.94859789 108.63512862 -194.68957865 119.09407607 -201 130 C-201.39429199 130.67724121 -201.78858398 131.35448242 -202.19482422 132.05224609 C-219.95006446 162.92137806 -230.04671651 198.61065372 -233 234 C-233.33 234 -233.66 234 -234 234 C-234.65587185 217.15721093 -233.5789633 202.21716167 -229 186 C-228.57171901 184.36750123 -228.1446128 182.73469376 -227.71875 181.1015625 C-213.70640757 129.35646753 -179.50975464 79.43731161 -136 48 C-134.85225242 47.14665608 -133.70512638 46.29247561 -132.55859375 45.4375 C-124.36592098 39.39191996 -115.84673093 34.03175896 -107 29 C-106.36819824 28.63551758 -105.73639648 28.27103516 -105.08544922 27.89550781 C-85.02690139 16.41466179 -63.29006464 8.84153418 -41 3 C-40.31357422 2.80792969 -39.62714844 2.61585937 -38.91992188 2.41796875 C-26.21602281 -1.11164053 -13.06337138 -0.28943954 0 0 Z " fill="#FCFDFE" transform="translate(234,0)"/>
<path d="M0 0 C13.2 0 26.4 0 40 0 C40 0.33 40 0.66 40 1 C39.3626442 0.99745712 38.72528839 0.99491425 38.06861877 0.99229431 C32.02751831 1.23529283 28.74114744 2.23589845 24.47117615 6.5348053 C23.89158646 7.16398361 23.31199677 7.79316193 22.71484375 8.44140625 C22.0876796 9.08367661 21.46051544 9.72594696 20.81434631 10.38768005 C18.83297683 12.4256455 16.88518862 14.49237284 14.9375 16.5625 C12.9509209 18.62874382 10.95804568 20.68875491 8.96424866 22.74803162 C7.72983545 24.02786572 6.50101829 25.31312472 5.27830505 26.60414124 C3.87035935 28.08688151 2.43775643 29.54614778 1 31 C0.67 31 0.34 31 0 31 C0 20.77 0 10.54 0 0 Z " fill="#4DA3ED" transform="translate(281,273)"/>
<path d="M0 0 C32.78269127 -1.6157953 67.62825112 9.76130282 96 26 C96.495 26.99 96.495 26.99 97 28 C92.53431585 26.62761902 88.3355005 24.87052598 84.07397461 22.97949219 C57.29212107 11.12494455 29.23366271 3.39620186 0 1 C0 0.67 0 0.34 0 0 Z " fill="#FBFCFE" transform="translate(278,0)"/>
<path d="M0 0 C0.33 0 0.66 0 1 0 C1.06469482 0.58152832 1.12938965 1.16305664 1.19604492 1.76220703 C2.86831585 16.43512842 5.2895322 30.70222456 9 45 C9.21495117 45.83063965 9.42990234 46.6612793 9.65136719 47.51708984 C12.98592632 60.090222 17.6817558 71.93273629 22.828125 83.8671875 C24.4047847 87.53153478 25.83446843 91.17964653 27 95 C24.63914426 92.85224211 23.29523011 90.90175047 21.984375 88 C21.443573 86.808302 21.443573 86.808302 20.8918457 85.5925293 C20.51503662 84.73699463 20.13822754 83.88145996 19.75 83 C19.35449951 82.10643799 18.95899902 81.21287598 18.55151367 80.29223633 C11.39748763 63.92143767 6.05900865 47.4040482 2 30 C1.79987305 29.16436523 1.59974609 28.32873047 1.39355469 27.46777344 C0.03718808 21.37488853 -0.24495268 15.60331249 -0.125 9.375 C-0.11597656 8.46621094 -0.10695312 7.55742187 -0.09765625 6.62109375 C-0.07442125 4.41376901 -0.04176346 2.20703834 0 0 Z " fill="#FAFCFE" transform="translate(0,278)"/>
</svg>
